<svg xmlns="http://www.w3.org/2000/svg"  viewBox="0 0 48 48" width="100px" height="100px"><path fill="#1e4384" d="M4.751,21.15c0.125-2.497-0.172-4.719-0.241-7.218C4.454,11.972,4.407,9.96,5.048,8.113 c0.28-0.808,0.708-1.592,1.376-2.109c0.503-0.39,1.113-0.606,1.723-0.772c2.032-0.551,4.158-0.591,6.259-0.616 c7.865-0.092,15.733-0.001,23.594,0.272c0.917,0.032,1.867,0.074,2.687,0.496c1.737,0.892,2.308,3.121,2.505,5.099 c0.213,2.138,0.211,4.292,0.208,6.442c-0.008,6.008-0.016,12.017-0.024,18.025c-0.003,2.31-0.106,4.881-1.703,6.515 c-1.073,1.099-2.619,1.54-4.107,1.854c-6.878,1.45-13.982,1.063-20.994,0.669c-1.497-0.084-2.994-0.168-4.491-0.252 c-1.1-0.062-2.22-0.127-3.253-0.519c-1.992-0.755-3.41-2.656-4.099-4.711s-0.747-4.27-0.724-6.443 C4.047,28.32,4.564,24.887,4.751,21.15z"/><path fill="#010101" d="M43.884,13.947C43.84,11.786,43.835,9.425,43,7.393c-0.341-0.829-0.836-1.583-1.56-2.124 c-0.843-0.63-1.881-0.802-2.908-0.858c-5.295-0.294-10.626-0.3-15.929-0.324c-2.649-0.012-5.299-0.003-7.948,0.027 C12.233,4.14,9.611,4.104,7.31,4.974c-2.161,0.818-2.943,2.967-3.208,5.107c-0.301,2.428-0.046,4.915,0.094,7.346 c0.072,1.241,0.11,2.48,0.054,3.722c-0.26,5.003-1.239,10.113-0.539,15.119c0.296,2.118,1.043,4.2,2.533,5.776 c1.523,1.612,3.477,2.05,5.619,2.177c5.195,0.307,10.41,0.693,15.617,0.617c2.553-0.037,5.104-0.207,7.631-0.578 c2.134-0.313,4.608-0.614,6.372-1.968c1.609-1.235,2.154-3.214,2.319-5.151c0.204-2.4,0.077-4.849,0.081-7.256 C43.891,24.577,43.993,19.256,43.884,13.947z M42.899,18.652c-0.003,2.469-0.007,4.938-0.01,7.408s-0.007,4.938-0.01,7.408 c-0.003,1.985,0.148,4.124-0.557,6.019c-0.772,2.074-2.671,2.864-4.693,3.308c-2.355,0.516-4.757,0.797-7.162,0.939 c-4.755,0.279-9.519,0-14.268-0.267c-1.247-0.07-2.495-0.14-3.742-0.21c-1.138-0.064-2.306-0.093-3.39-0.485 c-1.823-0.659-3.109-2.367-3.761-4.135c-0.8-2.171-0.833-4.532-0.796-6.817c0.039-2.37,0.273-4.729,0.48-7.088 c0.104-1.192,0.198-2.385,0.26-3.58c0.104-2.332-0.155-4.649-0.234-6.977c-0.075-2.195-0.23-4.719,0.857-6.716 c1.131-2.076,4.1-2.178,6.194-2.282c2.43-0.121,4.874-0.088,7.307-0.093c4.926-0.009,9.853,0.053,14.778,0.186 c1.242,0.034,2.483,0.071,3.724,0.115c1.062,0.037,2.206,0.062,3.072,0.763c1.476,1.196,1.689,3.444,1.82,5.2 C42.949,13.776,42.902,16.218,42.899,18.652z"/><path fill="#d6e5e5" d="M33.367,30.118c-2.602,0.829-5.407,1.192-8.122,1.409c-3.201,0.255-6.36-0.424-9.365-1.505 c-2.097-0.754-4.109-1.718-6.058-2.795c-0.007-0.004-0.013-0.003-0.02-0.006c-0.117-0.068-0.239-0.075-0.353-0.037 c-0.011,0.003-0.023,0.005-0.034,0.009c-0.036,0.015-0.067,0.036-0.1,0.059c-0.022,0.015-0.044,0.027-0.063,0.045 c-0.023,0.021-0.039,0.046-0.059,0.071c-0.019,0.025-0.04,0.048-0.055,0.076c-0.012,0.023-0.019,0.047-0.028,0.072 c-0.014,0.037-0.026,0.073-0.032,0.112c-0.001,0.012,0,0.023,0,0.035c-0.008,0.119,0.03,0.236,0.125,0.332 c0.005,0.006,0.006,0.012,0.011,0.018c2.526,2.658,5.778,4.463,9.344,5.293c1.717,0.4,3.47,0.569,5.23,0.604 c1.668,0.034,3.352,0.034,4.995-0.298c1.928-0.391,3.632-1.32,5.067-2.657C34.215,30.617,33.841,29.967,33.367,30.118z"/><path fill="#d6e5e5" d="M38.533,27.463c-0.373-0.216-0.861-0.307-1.282-0.38c-0.834-0.144-1.665-0.104-2.506-0.05 c-0.817,0.053-1.843,0.115-2.413,0.793c-0.244,0.29-0.157,0.715,0.221,0.836c1.097,0.349,2.328,0.059,3.409,0.512 c0.173,0.072,0.33,0.162,0.422,0.359c0.117,0.251,0.088,0.558,0.036,0.823c-0.12,0.602-0.374,1.168-0.488,1.769 c-0.055,0.105-0.057,0.214-0.025,0.316c0.042,0.219,0.271,0.394,0.484,0.394c0.129,0,0.229-0.049,0.309-0.12 c0.015-0.011,0.03-0.014,0.045-0.027c1.175-1.064,1.944-2.414,2.177-3.989C38.991,28.225,39.007,27.737,38.533,27.463z"/><path fill="#d6e5e5" d="M9.415,18.266c0.236,1.741,0.265,3.509,0.114,5.258c-0.023,0.269,0.246,0.5,0.5,0.5 c0.29,0,0.477-0.23,0.5-0.5c0.159-1.845,0.099-3.69-0.15-5.524c-0.036-0.268-0.38-0.414-0.615-0.349 C9.475,17.73,9.378,17.997,9.415,18.266L9.415,18.266z"/><path fill="#d6e5e5" d="M10.597,19.421c0.247-0.454,0.698-0.689,1.186-0.809c0.473-0.116,1.172-0.212,1.495,0.244 c0.368,0.519,0.269,1.304,0.281,1.902c0.016,0.797,0.032,1.595,0.048,2.392c0.013,0.643,1.013,0.645,1,0 c-0.019-0.95-0.038-1.9-0.057-2.85c-0.017-0.834-0.067-1.778-0.764-2.353c-0.635-0.524-1.548-0.486-2.305-0.291 c-0.716,0.185-1.387,0.597-1.748,1.259C9.426,19.482,10.289,19.987,10.597,19.421L10.597,19.421z"/><path fill="#d6e5e5" d="M14.309,19.395c0.358-0.432,0.829-0.731,1.387-0.826c0.221-0.037,0.492-0.053,0.705,0.031 c0.261,0.103,0.299,0.42,0.33,0.665c0.088,0.702,0.041,1.426,0.035,2.132c-0.006,0.758-0.013,1.516-0.019,2.273 c-0.006,0.644,0.994,0.644,1,0c0.008-0.924,0.016-1.848,0.024-2.772c0.007-0.813,0.102-1.773-0.254-2.53 c-0.36-0.768-1.245-0.896-2.001-0.778c-0.74,0.116-1.438,0.521-1.914,1.097c-0.172,0.208-0.204,0.504,0,0.707 C13.779,19.572,14.136,19.604,14.309,19.395L14.309,19.395z"/><path fill="#d6e5e5" d="M19,18.5c0.014,0.755,0.005,1.512,0.072,2.264c0.062,0.694,0.118,1.545,0.518,2.142 c0.405,0.604,1.166,0.869,1.861,0.932c0.67,0.061,1.379-0.114,1.924-0.512c0.218-0.159,0.326-0.434,0.179-0.684 c-0.126-0.215-0.465-0.34-0.684-0.179c-0.417,0.305-0.905,0.432-1.419,0.376c-0.419-0.046-0.931-0.217-1.108-0.633 c-0.228-0.533-0.26-1.199-0.296-1.77c-0.04-0.644-0.035-1.29-0.047-1.935C19.988,17.857,18.988,17.855,19,18.5L19,18.5z"/><path fill="#d6e5e5" d="M22.263,18.387c0.388,1.675,0.619,3.376,0.692,5.093c0.027,0.641,1.027,0.645,1,0 c-0.076-1.804-0.32-3.6-0.728-5.359C23.082,17.494,22.118,17.759,22.263,18.387L22.263,18.387z"/><path fill="#d6e5e5" d="M28.678,17.793c-0.896-0.389-1.897-0.407-2.779,0.041c-0.885,0.45-1.17,1.394-0.739,2.272 c0.42,0.855,1.331,1.19,2.184,1.45c0.316,0.096,0.835,0.177,1.036,0.472c0.16,0.236,0.076,0.588-0.096,0.795 c-0.652,0.783-1.903,0.247-2.651-0.042c-0.252-0.097-0.549,0.107-0.615,0.349c-0.078,0.283,0.096,0.517,0.349,0.615 c0.869,0.336,1.805,0.658,2.733,0.34c0.815-0.28,1.434-1.008,1.351-1.904c-0.097-1.052-1.065-1.351-1.931-1.617 c-0.599-0.184-1.613-0.513-1.577-1.318c0.019-0.412,0.502-0.599,0.843-0.688c0.451-0.117,0.955-0.089,1.386,0.097 c0.248,0.107,0.536,0.073,0.684-0.179C28.981,18.266,28.927,17.901,28.678,17.793L28.678,17.793z"/><path fill="#d6e5e5" d="M30.278,18.131c0.221,1.813,0.33,3.628,0.272,5.455c-0.021,0.644,0.98,0.643,1,0 c0.058-1.827-0.051-3.641-0.272-5.455c-0.033-0.268-0.206-0.5-0.5-0.5C30.533,17.631,30.245,17.861,30.278,18.131L30.278,18.131z"/><path fill="#d6e5e5" d="M31.278,15.825c-0.004-0.021-0.01-0.042-0.018-0.063c-0.028-0.077-0.059-0.157-0.108-0.224 c-0.039-0.053-0.074-0.095-0.112-0.134c-0.04-0.117-0.112-0.229-0.224-0.288c-0.04-0.017-0.08-0.034-0.119-0.05 c-0.089-0.024-0.177-0.024-0.266,0c-0.092,0.02-0.184,0.059-0.264,0.108c-0.038,0.024-0.073,0.053-0.109,0.082 c-0.031,0.015-0.066,0.021-0.095,0.038c-0.059,0.034-0.113,0.079-0.165,0.122c-0.025,0.02-0.048,0.041-0.069,0.064 c-0.048,0.051-0.091,0.109-0.13,0.166c-0.018,0.026-0.033,0.053-0.046,0.081c-0.036,0.057-0.056,0.119-0.059,0.186 c-0.015,0.066-0.012,0.133,0.009,0.199c0.032,0.116,0.122,0.242,0.23,0.299c0.047,0.025,0.1,0.04,0.154,0.052 c0.022,0.028,0.041,0.058,0.066,0.082c0.043,0.041,0.093,0.077,0.142,0.111c0.019,0.013,0.039,0.025,0.06,0.035 c0.056,0.027,0.115,0.055,0.176,0.071c0.062,0.017,0.128,0.023,0.191,0.028c0.021,0.002,0.041,0.001,0.062-0.001 c0.062-0.006,0.129-0.01,0.189-0.031c0.056-0.019,0.117-0.042,0.168-0.074c0.042-0.027,0.084-0.061,0.122-0.093 c0.008-0.007,0.016-0.014,0.024-0.022c0.141-0.147,0.224-0.349,0.217-0.554C31.3,15.951,31.289,15.887,31.278,15.825z"/><path fill="#d6e5e5" d="M37.023,17.961c-0.374,0.024-0.72-0.18-1.085-0.236c-0.448-0.068-0.87,0.033-1.281,0.212 c-0.355,0.155-0.742,0.359-1.018,0.636c-0.297,0.298-0.436,0.702-0.514,1.106c-0.167,0.862-0.199,1.757,0.161,2.576 c0.332,0.757,0.946,1.217,1.723,1.457c0.886,0.274,1.97,0.291,2.626-0.473c0.176-0.205,0.201-0.506,0-0.707 c-0.18-0.18-0.53-0.206-0.707,0c-0.493,0.575-1.404,0.37-2.008,0.088c-0.653-0.305-0.907-1.051-0.918-1.726 c-0.006-0.399,0.042-0.803,0.142-1.19c0.099-0.382,0.324-0.539,0.659-0.725c0.314-0.174,0.668-0.337,1.035-0.261 c0.405,0.084,0.761,0.269,1.187,0.242c0.27-0.017,0.5-0.218,0.5-0.5C37.523,18.204,37.294,17.944,37.023,17.961L37.023,17.961z"/></svg>