<svg xmlns="http://www.w3.org/2000/svg" xmlns:xlink="http://www.w3.org/1999/xlink" viewBox="0,0,256,256" width="100px" height="100px"><g fill="#ffffff" fill-rule="nonzero" stroke="none" stroke-width="1" stroke-linecap="butt" stroke-linejoin="miter" stroke-miterlimit="10" stroke-dasharray="" stroke-dashoffset="0" font-family="none" font-weight="none" font-size="none" text-anchor="none" style="mix-blend-mode: normal"><path d="M0,256v-256h256v256z" id="bgRectangle"></path></g><g fill="#000000" fill-rule="nonzero" stroke="none" stroke-width="1" stroke-linecap="butt" stroke-linejoin="miter" stroke-miterlimit="10" stroke-dasharray="" stroke-dashoffset="0" font-family="none" font-weight="none" font-size="none" text-anchor="none" style="mix-blend-mode: normal"><g transform="scale(5.12,5.12)"><path d="M14,4c-5.51133,0 -10,4.48867 -10,10v22c0,5.51133 4.48867,10 10,10h22c5.51133,0 10,-4.48867 10,-10v-22c0,-5.51133 -4.48867,-10 -10,-10zM14,6h22c4.43067,0 8,3.56933 8,8v22c0,4.43067 -3.56933,8 -8,8h-22c-4.43067,0 -8,-3.56933 -8,-8v-22c0,-4.43067 3.56933,-8 8,-8zM34,18.00977c-0.55228,0 -1,0.44772 -1,1c0,0.55228 0.44772,1 1,1c0.55228,0 1,-0.44772 1,-1c0,-0.55228 -0.44772,-1 -1,-1zM9.25,21.00977v7h1.5v-5.14062c0.49267,-0.11935 0.9872,-0.23335 1.47656,-0.36328c0.5,-0.136 0.97558,0.23416 1.01758,0.66016l0.00781,4.84375h1.5l0.00195,-2.5l0.00586,-1.25l-0.00586,-0.625l-0.00391,-0.31641c-0.00847,-0.1458 -0.02627,-0.29039 -0.06055,-0.43359c0.51302,-0.12392 1.02762,-0.24363 1.53711,-0.37891c0.5,-0.137 0.97558,0.23516 1.01758,0.66016l0.00781,4.84375h1.5l0.00195,-2.5l0.00586,-1.25l-0.00586,-0.625l-0.00391,-0.31641c-0.009,-0.155 -0.02545,-0.30894 -0.06445,-0.46094c-0.147,-0.609 -0.56175,-1.13197 -1.09375,-1.41797c-0.527,-0.293 -1.19742,-0.33063 -1.73242,-0.14062c-0.56591,0.19294 -1.12758,0.40168 -1.68945,0.60938c-0.16828,-0.18677 -0.3598,-0.35138 -0.57812,-0.46875c-0.527,-0.293 -1.19742,-0.33063 -1.73242,-0.14062c-0.37163,0.1267 -0.73965,0.26662 -1.10937,0.40039v-0.68945zM21.75,21.00977l-1.49805,0.00195l0.00195,2.41992c-0.009,0.823 -0.01723,1.57703 0.00977,2.45703c0.043,0.614 0.37636,1.1733 0.81836,1.5293c0.445,0.361 0.9912,0.55094 1.5332,0.58594c0.522,0.043 1.13462,-0.11575 1.51563,-0.34375c0.04035,-0.02084 0.07904,-0.04503 0.11914,-0.06641v0.23438h1.5v-6.81641h-1.5v5.35352c-0.21152,0.07332 -0.42492,0.14307 -0.63281,0.22461c-0.352,0.149 -0.57877,0.17462 -0.88477,0.14063c-0.574,-0.07 -1.01156,-0.52697 -0.97656,-0.91797c0.009,-0.732 0.01205,-1.59281 -0.00195,-2.38281zM33.25,21.00977v7h1.5v-7zM39.22461,21.01367c-0.355,0.01987 -0.71016,0.10073 -1.03516,0.24023c-1.32,0.578 -1.96945,1.93744 -1.93945,3.14844c0.01,0.568 0.09961,1.163 0.34961,1.75c0.26,0.569 0.71961,1.13689 1.34961,1.46289c0.62,0.335 1.32117,0.42981 1.95117,0.38281c0.38,-0.037 0.74961,-0.10284 1.09961,-0.21484v-1.02344c-0.89,0.14 -1.77008,0.13981 -2.33008,-0.24219c-0.63,-0.391 -0.92992,-1.22881 -0.91992,-2.13281c-0.02,-0.82 0.38055,-1.60256 1.06055,-1.97656c0.64,-0.345 1.46945,-0.20494 2.18945,0.28906v-1.23047c-0.23,-0.139 -0.47023,-0.24998 -0.74023,-0.33398c-0.325,-0.098 -0.68016,-0.13902 -1.03516,-0.11914zM29.70508,21.02539c-0.26433,0.02373 -0.52791,0.075 -0.78516,0.15625c-0.883,0.278 -1.51456,0.87342 -1.60156,1.48242c-0.162,1.139 0.67203,1.80623 1.08203,1.99023c0.41,0.222 0.77914,0.31902 1.11914,0.41602c0.69,0.165 1.12811,0.35166 1.28711,0.59766c0.087,0.135 0.12305,0.23797 0.12305,0.41797c0,0.18 -0.04047,0.34103 -0.23047,0.45703c-0.39,0.213 -1.05992,0.29066 -1.66992,0.22266c-0.61,-0.058 -1.3893,-0.32884 -2.0293,-0.58984v1.07422c0.59,0.367 1.21914,0.56173 1.86914,0.67773c0.77,0.106 1.56117,0.17411 2.45117,-0.21289c0.43,-0.174 0.95117,-0.56309 0.95117,-1.62109c0,-1.104 -0.80117,-1.5892 -1.20117,-1.7832c-0.4,-0.203 -0.76938,-0.30025 -1.10937,-0.40625c-0.33,-0.107 -1.20117,-0.249 -1.20117,-1c0,-0.313 0.33008,-0.48745 0.58008,-0.56445c0.84,-0.28 1.83016,-0.06467 2.66016,0.36133v-1.23828c-0.6975,-0.3345 -1.50194,-0.5087 -2.29492,-0.4375zM39.60352,31.00977c-1.111,0 -2.43034,0.28047 -3.40234,0.98047c-0.278,0.21 -0.27864,0.49023 0.06836,0.49023c1.111,-0.14 3.61166,-0.49133 4.09766,0.13867c0.417,0.56 -0.48534,2.9425 -0.90234,4.0625c-0.139,0.35 0.13997,0.41898 0.41797,0.20898c1.875,-1.611 2.36167,-4.90227 2.01367,-5.32227c-0.208,-0.349 -1.18197,-0.55859 -2.29297,-0.55859zM8.96289,31.77148c-0.05575,0.01087 -0.10798,0.04039 -0.14648,0.08789c-0.087,0.107 -0.06989,0.26652 0.03711,0.35352c2.06,1.668 4.39142,2.93969 6.85742,3.92969c2.474,0.958 5.09716,1.61492 7.78516,1.79492c2.689,0.185 5.39133,-0.06747 7.98633,-0.73047c2.597,-0.672 5.07116,-1.70539 7.28516,-3.27539c0.193,-0.136 0.26802,-0.39519 0.16602,-0.61719c-0.116,-0.251 -0.41306,-0.35914 -0.66406,-0.24414l-0.03906,0.01758c-2.265,1.043 -4.72792,1.7753 -7.16992,2.2793c-2.452,0.51 -4.96422,0.70419 -7.44922,0.61719c-2.491,-0.101 -4.96544,-0.59706 -7.39844,-1.28906c-2.414,-0.74 -4.81936,-1.67167 -7.06836,-2.88867l-0.01562,-0.00977c-0.0515,-0.028 -0.11027,-0.03627 -0.16602,-0.02539z"></path></g></g></svg>